<svg 
  xmlns="http://www.w3.org/2000/svg" 
  xmlns:xlink="http://www.w3.org/1999/xlink" 
  width="30" 
  height="38">
  <defs>
    <linearGradient 
      id="linearGradient831">
      <stop 
        style="stop-color:#000000;stop-opacity:1" 
        offset="0"/>
      <stop 
        style="stop-color:#000000;stop-opacity:0" 
        offset="1"/>
    </linearGradient>
    <linearGradient 
      id="linearGradient833" 
      x1="9" x2="9" y1="278.444" y2="312.444" 
      gradientTransform="matrix(0.33333333,0,0,0.23529412,1e-7,-39.512423)" 
      gradientUnits="userSpaceOnUse" 
      xlink:href="#linearGradient831"/>
    <radialGradient 
      id="radialGradient843" cx="6" cy="305.444" r="3" fx="6" fy="305.444" 
      gradientTransform="matrix(-2.3333334,8.2688579e-6,-1.2862565e-5,-2.6666453,21.003929,840.5138)"
      gradientUnits="userSpaceOnUse" 
      xlink:href="#linearGradient831"/>
  </defs>

  <g 
    transform="translate(0,4)">
    <rect style="opacity:0.3;fill:url(#radialGradient843)" width="7" height="8" x="0" y="26"/>
    <rect style="opacity:0.3;fill:url(#linearGradient833)" width="23" height="8" x="7" y="26"/>
    <path 
    style="opacity:0.7;fill:#272727" 
    d="m 0,-4 v 30 c 0,1.662 1.338,3 3,3 H 30 V -4 Z"/>
    <path 
      style="opacity:0.1;fill:#ffffff" 
      d="m 0,25 v 1 c 0,1.662 1.338,3 3,3 H 30 V 28 H 3 C 1.338,28 0,26.662 0,25 Z"/>
  </g>
  
  <g 
  transform="translate(-553.72-583.12)">
    <g 
      transform="matrix(1.125 0 0 1.125 556.35-573.41)" 
      fill="#f2f2f2">
      <path 
        d="m3 3v1 11 1 3h1 2 8 4 1v-15-1h-16m1 1h14v14h-4-8-2v-2-1-11" 
        transform="translate(0 1030.36)"/>
      <path 
        transform="matrix(.7071.70711.7071-.70711 0 0)" 
        d="m740.39-731.9h3.243v1h-3.243z"/>
      <path 
        transform="matrix(.7071-.70711.7071.70711 0 0)" 
        d="m-734.44 742.92h3.243v1h-3.243z"/>
      <path 
        d="m8.794 1042.86l.207-.207.207.207-.207.207z" 
        fill-rule="evenodd"/><path d="m10 1044.36h4v1h-4z"/>
    </g>
  </g>
</svg>
